<svg xmlns="http://www.w3.org/2000/svg" width="70" height="49" fill="none" viewBox="0 0 70 49"><path fill="#fff" d="M39.772 11.501C40.988 10.282 41.741 8.599 41.741 6.74 41.741 3.018 38.723 0 35 0 32.647 0 30.578 1.208 29.372 3.036 29.052 3.357 2.219 36.428 1.969 36.808.752 38.028 0 39.71 0 41.568 0 45.291 3.018 48.309 6.74 48.309 9.094 48.309 11.163 47.101 12.369 45.273 12.689 44.952 39.521 11.88 39.772 11.501ZM55.297 27.195C56.517 25.975 57.271 24.29 57.271 22.429 57.271 18.706 54.253 15.689 50.531 15.689 48.176 15.689 46.106 16.898 44.901 18.727 44.578 19.05 30.485 36.422 30.233 36.805 29.013 38.025 28.259 39.709 28.259 41.57 28.259 45.293 31.277 48.311 34.999 48.311 37.354 48.311 39.424 47.102 40.629 45.272 40.952 44.95 55.045 27.577 55.297 27.195ZM70 6.74C70 10.463 66.982 13.481 63.26 13.481 59.537 13.481 56.519 10.463 56.519 6.74 56.519 3.018 59.537 0 63.26 0 66.982 0 70 3.018 70 6.74ZM13.481 6.74C13.481 10.463 10.463 13.481 6.74 13.481 3.018 13.481 0 10.463 0 6.74 0 3.018 3.018 0 6.74 0 10.463 0 13.481 3.018 13.481 6.74Z"/></svg>