<svg xmlns="http://www.w3.org/2000/svg" width="175" height="175" fill="none" viewBox="0 0 175 175"><circle cx="87.5" cy="87.5" r="87" stroke="#000"/><mask id="mask0_6_370" width="175" height="175" x="0" y="0" maskUnits="userSpaceOnUse" style="mask-type:alpha"><circle cx="87.5" cy="87.5" r="87.5" fill="#d9d9d9"/></mask><g mask="url(#mask0_6_370)"><path fill="#ffe7fb" d="M72.8 121.179C73.49 124.765 74.2689 128.527 76.6529 131.292C80.3769 135.612 86.7449 136.192 92.4409 136.461C95.6679 136.613 99.428 136.533 101.403 133.978C102.862 132.093 102.808 129.5 103.048 127.128C103.813 119.576 108.096 112.925 111.22 106.008C119.226 88.2829 119.658 67.2839 112.391 49.2439C111.379 46.7339 110.172 44.2049 108.145 42.4109C105.865 40.3949 102.8 39.5289 99.802 39.0069C86.192 36.6339 59.9409 40.0269 60.8029 58.2649C61.7739 78.8159 68.908 100.955 72.8 121.179Z"/><path fill="#6987ff" d="M132.264 200.626C134.77 200.696 137.475 200.709 139.516 199.255C142.973 196.793 142.729 191.667 142.053 187.477C139.698 172.881 135.688 157.078 123.743 148.366C114.535 141.651 102.409 140.591 91.0213 140.992C81.8933 141.314 72.8073 142.419 63.7853 143.842C57.8983 144.77 51.7563 145.956 47.1183 149.7C40.6973 154.883 38.6653 163.644 37.0273 171.732C35.7373 178.097 29.6073 192.285 35.6293 197.036C41.1923 201.425 59.3633 198.575 66.3333 198.771C88.3103 199.389 110.287 199.998 132.264 200.626Z"/><path fill="#dbc9ff" d="M76.0912 188.839C77.0772 193.148 78.5382 197.564 81.7112 200.643C84.8832 203.721 90.1992 204.979 93.7952 202.408C98.1262 199.312 97.8682 192.969 97.8772 187.646C97.8862 181.815 98.7612 175.987 100.462 170.41C102.95 162.256 107.215 154.537 108.003 146.049C108.269 143.191 107.94 139.905 105.679 138.138C104.305 137.064 102.489 136.783 100.757 136.576C91.1882 135.433 74.5032 132.564 71.4542 145.033C69.9962 150.993 72.5142 159.217 73.0602 165.265C73.7722 173.162 74.3182 181.088 76.0912 188.839Z"/><path fill="#f03fa3" d="M72.617 89.628C70.187 89.652 67.755 89.676 65.325 89.7 64.626 89.706 63.833 89.755 63.385 90.292 62.834 90.952 63.161 92.026 63.835 92.56 64.51 93.093 65.406 93.229 66.258 93.346 67.354 93.497 68.45 93.648 69.545 93.799 71.089 94.012 72.842 94.168 74.032 93.162 75.223 92.156 74.775 89.606 73.221 89.724M106.799 90.848C104.368 90.872 101.938 90.895 99.507 90.919 98.808 90.926 98.016 90.975 97.567 91.512 97.017 92.172 97.343 93.246 98.018 93.78 98.691 94.313 99.588 94.449 100.439 94.566 101.535 94.717 102.632 94.868 103.728 95.019 105.271 95.231 107.023 95.388 108.214 94.382 109.404 93.376 108.957 90.826 107.403 90.945"/><path fill="#000" d="M68.386 72.937C69.065 72.122 69.93 71.553 70.832 71.089 71.741 70.635 72.715 70.321 73.717 70.138 75.706 69.779 77.88 69.928 79.687 71.007 78.662 71.295 77.73 71.41 76.805 71.609L74.074 72.105C72.247 72.416 70.458 72.783 68.386 72.937ZM75.798 80.577C75.798 82.192 74.977 83.5 73.963 83.5 72.95 83.5 72.129 82.192 72.129 80.577 72.129 78.962 72.95 77.653 73.963 77.653 74.977 77.653 75.798 78.962 75.798 80.577ZM108.454 73.249C106.393 72.978 104.628 72.511 102.822 72.098L100.123 71.449C99.21 71.199 98.286 71.031 97.279 70.685 99.145 69.711 101.323 69.684 103.289 70.154 104.278 70.393 105.233 70.762 106.115 71.266 106.989 71.781 107.821 72.397 108.454 73.249ZM101.129 80.577C101.129 82.192 101.95 83.5 102.964 83.5 103.977 83.5 104.798 82.192 104.798 80.577 104.798 78.962 103.977 77.653 102.964 77.653 101.95 77.653 101.129 78.962 101.129 80.577Z"/><path stroke="#000" stroke-miterlimit="10" d="M86.159 78.921C86.273 79.172 85.46 85.666 83.4 89.138 83.4 89.138 82.948 91.528 87.551 92.827M81.569 99.452C81.569 99.452 89.656 102.133 95.924 99.59M75.36 115.92 74.22 127.96 73.75 132.89 70.79 134.75 54.2 145.15C43.63 151.78 36.18 162.38 33.53 174.57L28.5 197.7M99.45 115.04 99.87 119.5 100.69 128.09 101.14 132.89 120.69 145.15C131.26 151.78 138.71 162.38 141.36 174.57L146.39 197.7"/><path stroke="#000" stroke-miterlimit="10" d="M119.18 61.3696C119.23 63.2596 119.24 65.0896 119.21 66.8596C119.21 66.8996 119.22 66.9296 119.22 66.9496C119.22 66.9596 119.22 66.9796 119.21 66.9896C118.88 89.2996 112.94 102.07 106.26 109.37C104.01 111.83 101.68 113.66 99.4505 115.04C98.7105 115.5 97.9805 115.9 97.2705 116.26C91.5805 119.15 87.0205 119.15 87.0205 119.15C85.8705 119.15 84.7605 119.07 83.7005 118.92C80.5905 118.49 77.8305 117.44 75.3605 115.92C73.7505 114.93 72.2705 113.74 70.9205 112.39C61.8605 103.41 58.0005 87.3296 56.2805 75.6096L56.2705 75.5996C56.2005 75.1196 56.1305 74.6396 56.0705 74.1796C55.0705 66.9196 54.8905 61.6496 54.7305 61.3696"/><path fill="#000" d="M129.469 35.6968C135.278 55.7188 142.843 135.45 102.902 133.998L99.4457 115.04C108.315 109.56 118.766 96.7898 119.206 66.9898C119.216 66.9798 119.216 66.9798 119.216 66.9798C119.216 66.9798 119.216 66.9698 119.216 66.9498C119.216 66.9298 119.206 66.8998 119.206 66.8598C119.156 65.9598 118.396 59.9698 108.105 45.4698C108.105 45.4698 94.8357 61.3698 75.3557 61.3698C57.0657 61.3698 55.8457 70.5798 56.0657 74.1798C56.1257 75.0598 56.2657 75.5998 56.2657 75.5998L56.2757 75.6098C58.2557 89.0898 63.0657 108.35 75.3557 115.92L73.7457 132.89L47.1177 149.7C44.7527 129.542 41.1547 103.132 41.3147 70.4218C41.3147 70.4218 40.0947 9.68884 97.2357 15.3758C97.2357 15.3758 110.83 17.7308 112.743 24.1188C112.743 24.1188 126.578 25.7378 129.469 35.6968Z"/><path stroke="#000" stroke-miterlimit="10" d="M73.7461 132.89C73.7461 132.89 87.2881 141.66 101.136 132.89"/><path stroke="#000" stroke-miterlimit="10" d="M71.983 133.998C71.983 133.998 87.458 147.621 102.902 133.998M80.356 197.7C80.356 197.7 80.246 197.19 80.046 196.25 79.816 195.18 79.476 193.56 79.046 191.53 78.726 190.03 78.356 188.29 77.956 186.39 77.636 184.91 77.306 183.33 76.946 181.67 76.596 180.02 76.236 178.3 75.856 176.53 75.536 174.99 75.196 173.41 74.856 171.81 74.496 170.1 74.136 168.38 73.766 166.67 73.436 165.09 73.096 163.51 72.766 161.95 72.396 160.2 72.036 158.48 71.686 156.81 71.336 155.19 71.006 153.6 70.686 152.09 68.846 143.33 67.496 136.82 67.536 136.79"/><path stroke="#000" stroke-miterlimit="10" d="M58.377 142.529C58.061 142.727 56.742 156.37 56.742 156.37L69.277 169.737 65.761 177.853 78.795 190.346M93.826 197.7C93.826 197.7 93.936 197.19 94.136 196.25 94.366 195.18 94.706 193.56 95.136 191.53 95.456 190.03 95.826 188.29 96.226 186.39 96.546 184.91 96.886 183.33 97.236 181.67 97.586 180.02 97.956 178.3 98.326 176.53 98.656 174.99 98.986 173.41 99.326 171.81 99.686 170.1 100.046 168.38 100.416 166.67 100.746 165.09 101.086 163.51 101.406 161.95 101.776 160.2 102.146 158.48 102.496 156.81 102.836 155.19 103.176 153.6 103.486 152.09 105.336 143.33 106.686 136.82 106.646 136.79"/><path stroke="#000" stroke-miterlimit="10" d="M115.805 142.529C116.121 142.727 117.44 156.37 117.44 156.37L104.905 169.737L108.421 177.853L95.3867 190.346"/><path fill="#000" d="M103.486 152.09C103.176 153.6 102.836 155.19 102.496 156.81H71.686C71.336 155.19 71.006 153.6 70.686 152.09H103.486ZM101.406 161.95C101.086 163.51 100.746 165.09 100.416 166.67H73.766C73.436 165.09 73.096 163.51 72.766 161.95H101.406ZM99.326 171.81C98.986 173.41 98.656 174.99 98.326 176.53H75.856C75.536 174.99 75.196 173.41 74.856 171.81H99.326Z"/><path stroke="#fff" stroke-miterlimit="10" stroke-width="2" d="M82.569 39.379C82.569 45.795 76.235 50.997 68.421 50.997 60.607 50.997 54.273 45.795 54.273 39.379 54.273 32.963 60.607 27.761 68.421 27.761 76.235 27.761 82.569 32.963 82.569 39.379ZM119.676 39.379C119.676 45.795 113.341 50.997 105.527 50.997 97.714 50.997 91.379 45.795 91.379 39.379 91.379 32.963 97.714 27.761 105.527 27.761 113.341 27.761 119.676 32.963 119.676 39.379Z"/><path stroke="#fff" stroke-miterlimit="10" stroke-width="2" d="M82.5693 39.3788C82.5693 39.3788 86.6663 35.7238 91.3793 39.3788"/><path fill="#000" d="M99.8697 119.5C92.0197 122.16 79.8397 126.13 74.2197 127.96L75.3597 115.92C77.8297 117.44 80.5897 118.49 83.6997 118.92C84.7597 119.07 85.8697 119.15 87.0197 119.15C87.0197 119.15 91.5797 119.15 97.2697 116.26C97.9797 115.9 98.7097 115.5 99.4497 115.04L99.8697 119.5Z"/></g></svg>