<svg xmlns="http://www.w3.org/2000/svg" width="175" height="175" fill="none" viewBox="0 0 175 175"><circle cx="87.5" cy="87.5" r="87" stroke="#000"/><mask id="mask0_538_2" width="175" height="175" x="0" y="0" maskUnits="userSpaceOnUse" style="mask-type:alpha"><circle cx="87.5" cy="87.5" r="87.5" fill="#d9d9d9"/></mask><g mask="url(#mask0_538_2)"><path fill="#ffe7fb" d="M62.176 101.562C64.325 105.541 67.408 108.95 69.608 112.901C73.032 119.044 74.167 126.24 74.104 133.273C74.087 135.196 74.003 137.209 74.839 138.942C76.632 142.658 81.544 143.328 85.667 143.507C92.235 143.792 100.721 142.748 102.346 136.378C103.011 133.769 102.186 131.042 102.015 128.356C101.491 120.082 107.158 112.737 113.217 107.08C119.277 101.422 126.253 96.2723 129.797 88.7773C130.715 86.8353 131.363 84.4964 130.364 82.5954C128.202 78.4784 120.809 80.1504 118.524 76.0994C117.839 74.8844 117.813 73.4263 117.654 72.0403C116.229 59.6563 102.733 51.4474 90.274 51.8444C80.753 52.1484 63.279 57.1473 58.996 66.8083C55.054 75.6993 57.826 93.5033 62.176 101.562Z"/><path fill="#c3c62b" d="M28.3514 196.225C28.2284 200.123 28.9004 204.653 32.2454 206.658C33.9264 207.666 35.9694 207.813 37.9264 207.928C73.4564 210.011 109.114 209.903 144.63 207.608C145.605 207.544 146.643 207.456 147.415 206.859C149.017 205.616 148.533 203.117 147.871 201.202C144.444 191.299 140.367 181.621 135.673 172.252C132.914 166.739 129.434 160.888 123.605 158.882C115.495 156.09 107.204 161.909 98.8294 163.762C82.1654 167.448 68.0314 149.583 52.8914 154.398C37.6244 159.252 28.8054 181.828 28.3514 196.225Z"/><path fill="#6987ff" d="M67.5424 146.823C67.2314 147.323 66.9294 147.873 66.9624 148.46C67.0034 149.17 67.5174 149.752 68.0204 150.255C78.4154 160.656 96.3585 162.36 108.524 154.1C110.047 153.066 111.53 151.838 112.307 150.169C113.838 146.881 112.033 142.751 109.013 140.742C105.994 138.733 102.128 138.458 98.5245 138.858C94.9195 139.257 91.3984 140.26 87.7844 140.57C78.7534 141.347 72.8854 138.231 67.5424 146.823Z"/><path fill="#f03fa3" d="M71.771 95.622C69.339 95.646 66.909 95.67 64.478 95.694 63.779 95.7 62.987 95.749 62.539 96.286 61.988 96.946 62.314 98.021 62.989 98.554 63.663 99.087 64.559 99.223 65.412 99.34 66.507 99.491 67.603 99.642 68.699 99.793 70.243 100.006 71.995 100.162 73.185 99.156 74.376 98.151 73.929 95.601 72.375 95.719M105.952 96.841C103.521 96.865 101.09 96.889 98.659 96.912 97.961 96.919 97.168 96.969 96.72 97.505 96.169 98.165 96.496 99.239 97.169 99.773 97.844 100.307 98.741 100.443 99.592 100.56 100.688 100.71 101.784 100.861 102.879 101.012 104.424 101.225 106.176 101.382 107.367 100.375 108.557 99.369 108.11 96.819 106.555 96.938"/><path fill="#000" d="M64.897 76.963C65.71 76.281 66.662 75.874 67.63 75.576 68.605 75.289 69.621 75.152 70.638 75.149 72.66 75.147 74.773 75.677 76.362 77.058 75.301 77.16 74.365 77.11 73.419 77.142L70.642 77.149C68.79 77.131 66.964 77.177 64.897 76.963ZM72.467 86.885C72.467 88.5 71.646 89.809 70.633 89.809 69.62 89.809 68.798 88.5 68.798 86.885 68.798 85.271 69.62 83.962 70.633 83.962 71.646 83.962 72.467 85.271 72.467 86.885ZM104.92 76.822C102.856 77.062 101.031 77.037 99.178 77.076L96.403 77.104C95.456 77.082 94.519 77.145 93.459 77.055 95.03 75.655 97.137 75.099 99.158 75.077 100.176 75.068 101.192 75.193 102.17 75.468 103.143 75.754 104.1 76.15 104.92 76.822ZM97.798 86.885C97.798 88.5 98.62 89.809 99.633 89.809 100.646 89.809 101.467 88.5 101.467 86.885 101.467 85.271 100.646 83.962 99.633 83.962 98.62 83.962 97.798 85.271 97.798 86.885Z"/><path stroke="#000" stroke-miterlimit="10" d="M81.547 85.23C81.663 85.482 81.233 92.184 80.069 95.448 80.069 95.448 80.069 100.117 85.443 99.137M78.266 106.104C78.266 106.104 86.264 106.643 92.622 105.549M26.5 204.009 31.53 180.879C34.18 168.689 41.63 158.089 52.2 151.458L71.75 139.198 72.33 133.019H72.34L73.65 119.099 73.68 118.799M144.39 204.009 139.36 180.879C136.71 168.689 129.26 158.089 118.69 151.458L99.14 139.198 97.75 124.589 97.26 119.328 97.24 119.158"/><path stroke="#000" stroke-miterlimit="10" d="M52.7305 67.6792C53.1705 68.4292 52.1705 97.9582 69.8105 115.679C73.8305 119.708 78.8204 123.139 85.0204 125.458C85.0204 125.458 90.6805 124.599 97.2605 119.328C98.5605 118.299 99.8905 117.089 101.22 115.679C108.78 107.698 116.32 93.3492 117.17 67.6792"/><path stroke="#000" stroke-miterlimit="10" d="M54.0942 83.8503C54.0942 83.8503 46.6882 76.0093 43.5782 80.2033C40.4662 84.3993 48.8522 102.715 59.2902 99.5943"/><path stroke="#000" stroke-miterlimit="10" d="M48.5996 87.3942C48.5996 87.3942 53.6286 86.9912 56.1126 90.7952"/><path stroke="#000" stroke-miterlimit="10" d="M51.608 91.172C51.608 91.172 51.622 89.441 54.859 89.37M115.538 83.85C115.538 83.85 122.414 75.539 125.794 79.522 129.172 83.504 122.006 102.331 111.386 99.901"/><path stroke="#000" stroke-miterlimit="10" d="M121.44 87.0294C121.44 87.0294 116.396 86.9574 114.167 90.9164"/><path stroke="#000" stroke-miterlimit="10" d="M118.684 90.996C118.684 90.996 118.557 89.27 115.323 89.412M71.747 139.195C71.747 139.195 85.201 148.804 99.139 139.195"/><path stroke="#000" stroke-miterlimit="10" d="M84.95 143.466 78.376 151.753C78.376 151.753 70.93 149.929 67.315 141.975M86.236 143.466 92.809 151.753C92.809 151.753 100.255 149.929 103.87 141.975"/><path stroke="#000" stroke-miterlimit="10" d="M62.5791 144.945C62.5791 144.945 72.0261 157.868 85.4431 160.467C85.4431 160.467 99.5621 158.579 107.543 144.466"/><path stroke="#000" stroke-miterlimit="10" d="M59.665 146.864C59.665 146.864 72.026 161.766 85.443 164.364 85.443 164.364 102.431 160.378 110.412 146.265M85.443 164.364V204.011"/><path fill="#000" d="M103.871 57.7405C103.871 57.7405 81.6008 70.0945 67.3158 71.0405C53.0318 71.9865 54.7588 84.9965 54.7588 84.9965C54.7588 84.9965 43.5998 70.5815 44.9748 50.1745C46.3508 29.7675 87.5968 14.1745 108.133 30.9135C108.133 30.9135 136.482 43.6725 115.829 82.2765C115.829 82.2765 108.193 75.6265 103.871 57.7405Z"/><path fill="#000" d="M96.463 29.726C96.601 28.103 96.923 26.496 97.429 24.949 98.996 20.158 104.002 17.635 108.806 17.113 110.429 16.937 112.087 16.94 113.676 17.308 118.059 18.322 121.438 22.05 123.086 26.236 124.21 29.091 124.65 32.214 124.345 35.268 124.173 36.99 123.758 38.712 122.897 40.214 122.21 41.413 121.253 42.445 120.177 43.314 116.335 46.42 110.369 47.508 105.6 46.518 102.423 45.86 100.076 43.886 98.618 41.027 96.851 37.562 96.133 33.597 96.463 29.726ZM97.751 124.589C91.801 126.658 79.911 130.559 72.341 133.019L73.651 119.099C76.901 121.649 80.661 123.828 85.021 125.458 85.021 125.458 90.681 124.599 97.261 119.328L97.751 124.589Z"/></g></svg>